<svg fill="none" xmlns="http://www.w3.org/2000/svg" viewBox="0 0 29 26"><path d="M0 .09.02.03.08 0H9.3v1.96H2.23q-.03 0-.05.02l-.03.06v21.8q0 .05.03.06.02.02.05.02h2.41v1.95H.08l-.06-.02L0 25.8zM15.44 2.1q0-.03.03-.04l.04-.01h2L8.09 23.92l-2.07-.03zm9.71 19.23a4.6 4.6 0 0 1-1.13 3.4 4.2 4.2 0 0 1-3.07 1.15H17v-1.94h2.96a3 3 0 0 0 2.35-.8c.52-.72.77-1.61.7-2.5V18q-.01-1.04.41-1.98a6 6 0 0 1 2.16-2.57q.46-.35 1.02-.47v-.17a3 3 0 0 1-1-.4 5.5 5.5 0 0 1-2.15-2.44 5 5 0 0 1-.42-2.03v-2.7a4 4 0 0 0-.72-2.47 2.9 2.9 0 0 0-2.38-.87H18.5V0h2.4a4.1 4.1 0 0 1 3.9 2.76q.34.88.33 1.83v2.83a5 5 0 0 0 .4 2.14q.34.8.97 1.4.55.52 1.25.78.58.22 1.2.24v1.95q-.63.01-1.2.28-.71.3-1.25.88a5 5 0 0 0-1.37 3.54z" fill="#16c667"/></svg>