<svg width="222" height="229" viewBox="0 0 222 229" fill="none" xmlns="http://www.w3.org/2000/svg">
<path d="M27.1813 48.5567C42.1931 48.5567 54.3626 37.6869 54.3626 24.2783C54.3626 10.8698 42.1931 0 27.1813 0C12.1695 0 0 10.8698 0 24.2783C0 37.6869 12.1695 48.5567 27.1813 48.5567Z" fill="#1B3D6E"/>
<path d="M27.1813 228.25C42.1931 228.25 54.3626 217.38 54.3626 203.972C54.3626 190.563 42.1931 179.693 27.1813 179.693C12.1695 179.693 0 190.563 0 203.972C0 217.38 12.1695 228.25 27.1813 228.25Z" fill="#1B3D6E"/>
<path d="M27.1813 138.406C42.1931 138.406 54.3626 127.536 54.3626 114.128C54.3626 100.719 42.1931 89.8496 27.1813 89.8496C12.1695 89.8496 0 100.719 0 114.128C0 127.536 12.1695 138.406 27.1813 138.406Z" fill="#3C70AF"/>
<path d="M142.392 225.171H221.031L126.598 140.823C115.739 131.124 98.1297 131.124 87.2868 140.823C76.4275 150.523 76.4275 166.252 87.2868 175.936L142.392 225.171Z" fill="#1B3D6E"/>
<path d="M142.392 0.724121H221.031L126.598 85.0865C115.739 94.7861 98.1296 94.7861 87.2867 85.0865C76.4109 75.387 76.4109 59.6584 87.2702 49.9589L142.392 0.724121Z" fill="#3C70AF"/>
</svg>
