<svg width="260" height="228" viewBox="0 0 260 228" fill="none" xmlns="http://www.w3.org/2000/svg">
<path d="M115.178 126.277C116.247 136.923 116.781 142.574 107.961 151.774C98.7393 161.368 75.6187 178.979 51.9635 192.384C41.94 198.035 28.4419 204.869 18.2849 208.549C10.6671 211.178 4.38573 212.361 1.17824 206.972C-0.826415 203.424 0.109112 200.27 1.17824 197.51C9.46427 175.562 33.1194 134.557 48.6223 107.878C50.2261 105.249 51.8298 102.358 53.4336 99.5979C77.2224 59.2503 108.763 9.8345 115.044 1.81761C115.846 0.766186 117.583 -0.548006 119.053 0.240546C120.256 0.897662 120.256 2.34333 120.123 3.39475C120.123 3.52607 119.721 4.97184 119.588 5.62895C109.297 46.3707 110.5 86.324 115.178 126.277Z" fill="#00AEEF"/>
<path d="M149.926 138.762C139.902 134.294 134.69 131.928 131.082 119.837C127.206 107.22 123.33 78.7009 123.33 51.8902C123.33 40.5876 123.998 25.6052 125.869 15.0912C127.34 7.3371 129.478 1.2915 135.893 1.2915C139.902 1.2915 142.174 3.78854 144.179 6.1542C159.414 24.028 183.604 64.7699 199.374 91.1863C200.978 93.9462 202.582 96.7061 204.186 99.5975C227.841 140.076 255.639 191.595 259.515 200.795C260.049 202.109 260.45 204.212 258.98 205.132C257.644 205.789 256.441 205.001 255.639 204.475C255.505 204.343 254.436 203.292 253.902 202.898C223.163 173.721 187.346 154.665 149.926 138.762Z" fill="#00AEEF"/>
<path d="M121.459 162.156C130.413 155.848 135.091 152.562 147.654 155.453C160.617 158.607 187.613 169.516 211.402 182.921C221.292 188.572 234.122 196.589 242.408 203.423C248.556 208.549 252.699 213.412 249.625 218.8C247.487 222.349 244.279 223.006 241.205 223.531C217.817 227.474 169.839 227.737 138.699 228C135.492 228 132.151 228 128.81 228C81.3655 227.868 22.1606 225.766 12.0036 224.451C10.5335 224.189 8.52882 223.531 8.66248 221.823C8.66248 220.377 9.8653 219.72 10.8008 219.326C11.0679 219.194 12.4045 218.8 13.0728 218.669C54.1019 206.972 88.716 186.075 121.459 162.156Z" fill="#00AEEF"/>
</svg>
